<mxfile host="app.diagrams.net" agent="Mozilla/5.0 (Windows NT 10.0; Win64; x64) AppleWebKit/537.36 (KHTML, like Gecko) Chrome/130.0.0.0 Safari/537.36" version="24.8.6">
  <diagram name="Page-1" id="OdiODX9_MOAGJNRCflRd">
    <mxGraphModel dx="2514" dy="878" grid="1" gridSize="10" guides="1" tooltips="1" connect="1" arrows="1" fold="1" page="1" pageScale="1" pageWidth="827" pageHeight="1169" math="0" shadow="0">
      <root>
        <mxCell id="0" />
        <mxCell id="1" parent="0" />
        <mxCell id="yzf6HxPcANhCnFxS5VST-33" value="" style="edgeStyle=orthogonalEdgeStyle;rounded=0;orthogonalLoop=1;jettySize=auto;html=1;" parent="1" source="yzf6HxPcANhCnFxS5VST-4" target="yzf6HxPcANhCnFxS5VST-24" edge="1">
          <mxGeometry relative="1" as="geometry" />
        </mxCell>
        <mxCell id="yzf6HxPcANhCnFxS5VST-50" value="" style="edgeStyle=orthogonalEdgeStyle;rounded=0;orthogonalLoop=1;jettySize=auto;html=1;" parent="1" source="yzf6HxPcANhCnFxS5VST-4" target="yzf6HxPcANhCnFxS5VST-39" edge="1">
          <mxGeometry relative="1" as="geometry" />
        </mxCell>
        <mxCell id="yzf6HxPcANhCnFxS5VST-62" value="" style="edgeStyle=orthogonalEdgeStyle;rounded=0;orthogonalLoop=1;jettySize=auto;html=1;" parent="1" source="yzf6HxPcANhCnFxS5VST-4" target="yzf6HxPcANhCnFxS5VST-51" edge="1">
          <mxGeometry relative="1" as="geometry" />
        </mxCell>
        <mxCell id="yzf6HxPcANhCnFxS5VST-98" value="" style="edgeStyle=orthogonalEdgeStyle;rounded=0;orthogonalLoop=1;jettySize=auto;html=1;" parent="1" source="yzf6HxPcANhCnFxS5VST-4" target="yzf6HxPcANhCnFxS5VST-81" edge="1">
          <mxGeometry relative="1" as="geometry" />
        </mxCell>
        <mxCell id="yzf6HxPcANhCnFxS5VST-121" value="" style="edgeStyle=orthogonalEdgeStyle;rounded=0;orthogonalLoop=1;jettySize=auto;html=1;" parent="1" source="yzf6HxPcANhCnFxS5VST-4" target="yzf6HxPcANhCnFxS5VST-104" edge="1">
          <mxGeometry relative="1" as="geometry" />
        </mxCell>
        <mxCell id="yzf6HxPcANhCnFxS5VST-4" value="user" style="swimlane;fontStyle=0;childLayout=stackLayout;horizontal=1;startSize=26;fillColor=#fba;horizontalStack=0;resizeParent=1;resizeParentMax=0;resizeLast=0;collapsible=1;marginBottom=0;whiteSpace=wrap;html=1;" parent="1" vertex="1">
          <mxGeometry x="40" y="30" width="150" height="500" as="geometry">
            <mxRectangle x="40" y="30" width="70" height="30" as="alternateBounds" />
          </mxGeometry>
        </mxCell>
        <mxCell id="yzf6HxPcANhCnFxS5VST-5" value="userID: int Serial" style="text;strokeColor=none;fillColor=none;align=left;verticalAlign=top;spacingLeft=4;spacingRight=4;overflow=hidden;rotatable=0;points=[[0,0.5],[1,0.5]];portConstraint=eastwest;whiteSpace=wrap;html=1;" parent="yzf6HxPcANhCnFxS5VST-4" vertex="1">
          <mxGeometry y="26" width="150" height="24" as="geometry" />
        </mxCell>
        <mxCell id="yzf6HxPcANhCnFxS5VST-6" value="firstName varchar(500)" style="text;strokeColor=none;fillColor=none;align=left;verticalAlign=top;spacingLeft=4;spacingRight=4;overflow=hidden;rotatable=0;points=[[0,0.5],[1,0.5]];portConstraint=eastwest;whiteSpace=wrap;html=1;" parent="yzf6HxPcANhCnFxS5VST-4" vertex="1">
          <mxGeometry y="50" width="150" height="26" as="geometry" />
        </mxCell>
        <mxCell id="yzf6HxPcANhCnFxS5VST-35" value="email: varchar(500)" style="text;strokeColor=none;fillColor=none;align=left;verticalAlign=top;spacingLeft=4;spacingRight=4;overflow=hidden;rotatable=0;points=[[0,0.5],[1,0.5]];portConstraint=eastwest;whiteSpace=wrap;html=1;" parent="yzf6HxPcANhCnFxS5VST-4" vertex="1">
          <mxGeometry y="76" width="150" height="26" as="geometry" />
        </mxCell>
        <mxCell id="yzf6HxPcANhCnFxS5VST-36" value="passwd: varchar(500)" style="text;strokeColor=none;fillColor=none;align=left;verticalAlign=top;spacingLeft=4;spacingRight=4;overflow=hidden;rotatable=0;points=[[0,0.5],[1,0.5]];portConstraint=eastwest;whiteSpace=wrap;html=1;" parent="yzf6HxPcANhCnFxS5VST-4" vertex="1">
          <mxGeometry y="102" width="150" height="26" as="geometry" />
        </mxCell>
        <mxCell id="yzf6HxPcANhCnFxS5VST-7" value="birthDate: varchar(500)" style="text;strokeColor=none;fillColor=none;align=left;verticalAlign=top;spacingLeft=4;spacingRight=4;overflow=hidden;rotatable=0;points=[[0,0.5],[1,0.5]];portConstraint=eastwest;whiteSpace=wrap;html=1;" parent="yzf6HxPcANhCnFxS5VST-4" vertex="1">
          <mxGeometry y="128" width="150" height="22" as="geometry" />
        </mxCell>
        <mxCell id="yzf6HxPcANhCnFxS5VST-8" value="SSN: varchar(500)" style="text;strokeColor=none;fillColor=none;align=left;verticalAlign=top;spacingLeft=4;spacingRight=4;overflow=hidden;rotatable=0;points=[[0,0.5],[1,0.5]];portConstraint=eastwest;whiteSpace=wrap;html=1;" parent="yzf6HxPcANhCnFxS5VST-4" vertex="1">
          <mxGeometry y="150" width="150" height="22" as="geometry" />
        </mxCell>
        <mxCell id="yzf6HxPcANhCnFxS5VST-9" value="enabled varchar(10)" style="text;strokeColor=none;fillColor=none;align=left;verticalAlign=top;spacingLeft=4;spacingRight=4;overflow=hidden;rotatable=0;points=[[0,0.5],[1,0.5]];portConstraint=eastwest;whiteSpace=wrap;html=1;" parent="yzf6HxPcANhCnFxS5VST-4" vertex="1">
          <mxGeometry y="172" width="150" height="22" as="geometry" />
        </mxCell>
        <mxCell id="yzf6HxPcANhCnFxS5VST-10" value="dpae_path: text" style="text;strokeColor=none;fillColor=none;align=left;verticalAlign=top;spacingLeft=4;spacingRight=4;overflow=hidden;rotatable=0;points=[[0,0.5],[1,0.5]];portConstraint=eastwest;whiteSpace=wrap;html=1;" parent="yzf6HxPcANhCnFxS5VST-4" vertex="1">
          <mxGeometry y="194" width="150" height="22" as="geometry" />
        </mxCell>
        <mxCell id="yzf6HxPcANhCnFxS5VST-21" value="IBAN: varchar(500)" style="text;strokeColor=none;fillColor=none;align=left;verticalAlign=top;spacingLeft=4;spacingRight=4;overflow=hidden;rotatable=0;points=[[0,0.5],[1,0.5]];portConstraint=eastwest;whiteSpace=wrap;html=1;" parent="yzf6HxPcANhCnFxS5VST-4" vertex="1">
          <mxGeometry y="216" width="150" height="22" as="geometry" />
        </mxCell>
        <mxCell id="yzf6HxPcANhCnFxS5VST-65" value="BIC: varchar(50)" style="text;strokeColor=none;fillColor=none;align=left;verticalAlign=top;spacingLeft=4;spacingRight=4;overflow=hidden;rotatable=0;points=[[0,0.5],[1,0.5]];portConstraint=eastwest;whiteSpace=wrap;html=1;" parent="yzf6HxPcANhCnFxS5VST-4" vertex="1">
          <mxGeometry y="238" width="150" height="22" as="geometry" />
        </mxCell>
        <mxCell id="U_ijtLqlxkvW_aH1ptvR-2" value="internalIBAN:varchar(500)" style="text;strokeColor=none;fillColor=none;align=left;verticalAlign=top;spacingLeft=4;spacingRight=4;overflow=hidden;rotatable=0;points=[[0,0.5],[1,0.5]];portConstraint=eastwest;whiteSpace=wrap;html=1;" parent="yzf6HxPcANhCnFxS5VST-4" vertex="1">
          <mxGeometry y="260" width="150" height="22" as="geometry" />
        </mxCell>
        <mxCell id="yzf6HxPcANhCnFxS5VST-66" value="totalBalance: varchar(500)" style="text;strokeColor=none;fillColor=none;align=left;verticalAlign=top;spacingLeft=4;spacingRight=4;overflow=hidden;rotatable=0;points=[[0,0.5],[1,0.5]];portConstraint=eastwest;whiteSpace=wrap;html=1;" parent="yzf6HxPcANhCnFxS5VST-4" vertex="1">
          <mxGeometry y="282" width="150" height="38" as="geometry" />
        </mxCell>
        <mxCell id="yzf6HxPcANhCnFxS5VST-74" value="contractTerminationBalance: varchar(500)" style="text;strokeColor=none;fillColor=none;align=left;verticalAlign=top;spacingLeft=4;spacingRight=4;overflow=hidden;rotatable=0;points=[[0,0.5],[1,0.5]];portConstraint=eastwest;whiteSpace=wrap;html=1;" parent="yzf6HxPcANhCnFxS5VST-4" vertex="1">
          <mxGeometry y="320" width="150" height="40" as="geometry" />
        </mxCell>
        <mxCell id="yzf6HxPcANhCnFxS5VST-76" value="insurance_status: varchar(500)" style="text;strokeColor=none;fillColor=none;align=left;verticalAlign=top;spacingLeft=4;spacingRight=4;overflow=hidden;rotatable=0;points=[[0,0.5],[1,0.5]];portConstraint=eastwest;whiteSpace=wrap;html=1;" parent="yzf6HxPcANhCnFxS5VST-4" vertex="1">
          <mxGeometry y="360" width="150" height="34" as="geometry" />
        </mxCell>
        <mxCell id="yzf6HxPcANhCnFxS5VST-22" value="creationDate: date" style="text;strokeColor=none;fillColor=none;align=left;verticalAlign=top;spacingLeft=4;spacingRight=4;overflow=hidden;rotatable=0;points=[[0,0.5],[1,0.5]];portConstraint=eastwest;whiteSpace=wrap;html=1;" parent="yzf6HxPcANhCnFxS5VST-4" vertex="1">
          <mxGeometry y="394" width="150" height="22" as="geometry" />
        </mxCell>
        <mxCell id="yzf6HxPcANhCnFxS5VST-78" value="contract: text" style="text;strokeColor=none;fillColor=none;align=left;verticalAlign=top;spacingLeft=4;spacingRight=4;overflow=hidden;rotatable=0;points=[[0,0.5],[1,0.5]];portConstraint=eastwest;whiteSpace=wrap;html=1;" parent="yzf6HxPcANhCnFxS5VST-4" vertex="1">
          <mxGeometry y="416" width="150" height="22" as="geometry" />
        </mxCell>
        <mxCell id="Th4rdJgEuEFJNUefSonM-1" value="Taxrate: float" style="text;strokeColor=none;fillColor=none;align=left;verticalAlign=top;spacingLeft=4;spacingRight=4;overflow=hidden;rotatable=0;points=[[0,0.5],[1,0.5]];portConstraint=eastwest;whiteSpace=wrap;html=1;" vertex="1" parent="yzf6HxPcANhCnFxS5VST-4">
          <mxGeometry y="438" width="150" height="22" as="geometry" />
        </mxCell>
        <mxCell id="yzf6HxPcANhCnFxS5VST-79" value="userSubscriptionStatus: varchar(10)" style="text;strokeColor=none;fillColor=none;align=left;verticalAlign=top;spacingLeft=4;spacingRight=4;overflow=hidden;rotatable=0;points=[[0,0.5],[1,0.5]];portConstraint=eastwest;whiteSpace=wrap;html=1;" parent="yzf6HxPcANhCnFxS5VST-4" vertex="1">
          <mxGeometry y="460" width="150" height="40" as="geometry" />
        </mxCell>
        <mxCell id="yzf6HxPcANhCnFxS5VST-24" value="invoice" style="swimlane;fontStyle=0;childLayout=stackLayout;horizontal=1;startSize=26;fillColor=#fba;horizontalStack=0;resizeParent=1;resizeParentMax=0;resizeLast=0;collapsible=1;marginBottom=0;whiteSpace=wrap;html=1;" parent="1" vertex="1">
          <mxGeometry x="270" y="30" width="130" height="184" as="geometry">
            <mxRectangle x="40" y="30" width="70" height="30" as="alternateBounds" />
          </mxGeometry>
        </mxCell>
        <mxCell id="yzf6HxPcANhCnFxS5VST-25" value="invoiceID: int" style="text;strokeColor=none;fillColor=none;align=left;verticalAlign=top;spacingLeft=4;spacingRight=4;overflow=hidden;rotatable=0;points=[[0,0.5],[1,0.5]];portConstraint=eastwest;whiteSpace=wrap;html=1;" parent="yzf6HxPcANhCnFxS5VST-24" vertex="1">
          <mxGeometry y="26" width="130" height="24" as="geometry" />
        </mxCell>
        <mxCell id="yzf6HxPcANhCnFxS5VST-99" value="userID: int" style="text;strokeColor=none;fillColor=none;align=left;verticalAlign=top;spacingLeft=4;spacingRight=4;overflow=hidden;rotatable=0;points=[[0,0.5],[1,0.5]];portConstraint=eastwest;whiteSpace=wrap;html=1;" parent="yzf6HxPcANhCnFxS5VST-24" vertex="1">
          <mxGeometry y="50" width="130" height="24" as="geometry" />
        </mxCell>
        <mxCell id="yzf6HxPcANhCnFxS5VST-37" value="customer_id: int" style="text;strokeColor=none;fillColor=none;align=left;verticalAlign=top;spacingLeft=4;spacingRight=4;overflow=hidden;rotatable=0;points=[[0,0.5],[1,0.5]];portConstraint=eastwest;whiteSpace=wrap;html=1;" parent="yzf6HxPcANhCnFxS5VST-24" vertex="1">
          <mxGeometry y="74" width="130" height="22" as="geometry" />
        </mxCell>
        <mxCell id="yzf6HxPcANhCnFxS5VST-100" value="amount" style="text;strokeColor=none;fillColor=none;align=left;verticalAlign=top;spacingLeft=4;spacingRight=4;overflow=hidden;rotatable=0;points=[[0,0.5],[1,0.5]];portConstraint=eastwest;whiteSpace=wrap;html=1;" parent="yzf6HxPcANhCnFxS5VST-24" vertex="1">
          <mxGeometry y="96" width="130" height="22" as="geometry" />
        </mxCell>
        <mxCell id="yzf6HxPcANhCnFxS5VST-102" value="VAT" style="text;strokeColor=none;fillColor=none;align=left;verticalAlign=top;spacingLeft=4;spacingRight=4;overflow=hidden;rotatable=0;points=[[0,0.5],[1,0.5]];portConstraint=eastwest;whiteSpace=wrap;html=1;" parent="yzf6HxPcANhCnFxS5VST-24" vertex="1">
          <mxGeometry y="118" width="130" height="22" as="geometry" />
        </mxCell>
        <mxCell id="yzf6HxPcANhCnFxS5VST-103" value="TTCAmount" style="text;strokeColor=none;fillColor=none;align=left;verticalAlign=top;spacingLeft=4;spacingRight=4;overflow=hidden;rotatable=0;points=[[0,0.5],[1,0.5]];portConstraint=eastwest;whiteSpace=wrap;html=1;" parent="yzf6HxPcANhCnFxS5VST-24" vertex="1">
          <mxGeometry y="140" width="130" height="22" as="geometry" />
        </mxCell>
        <mxCell id="yzf6HxPcANhCnFxS5VST-125" value="status" style="text;strokeColor=none;fillColor=none;align=left;verticalAlign=top;spacingLeft=4;spacingRight=4;overflow=hidden;rotatable=0;points=[[0,0.5],[1,0.5]];portConstraint=eastwest;whiteSpace=wrap;html=1;" parent="yzf6HxPcANhCnFxS5VST-24" vertex="1">
          <mxGeometry y="162" width="130" height="22" as="geometry" />
        </mxCell>
        <mxCell id="yzf6HxPcANhCnFxS5VST-39" value="fdp" style="swimlane;fontStyle=0;childLayout=stackLayout;horizontal=1;startSize=26;fillColor=#fba;horizontalStack=0;resizeParent=1;resizeParentMax=0;resizeLast=0;collapsible=1;marginBottom=0;whiteSpace=wrap;html=1;" parent="1" vertex="1">
          <mxGeometry x="270" y="224" width="130" height="140" as="geometry">
            <mxRectangle x="40" y="30" width="70" height="30" as="alternateBounds" />
          </mxGeometry>
        </mxCell>
        <mxCell id="yzf6HxPcANhCnFxS5VST-40" value="fdpID" style="text;strokeColor=none;fillColor=none;align=left;verticalAlign=top;spacingLeft=4;spacingRight=4;overflow=hidden;rotatable=0;points=[[0,0.5],[1,0.5]];portConstraint=eastwest;whiteSpace=wrap;html=1;" parent="yzf6HxPcANhCnFxS5VST-39" vertex="1">
          <mxGeometry y="26" width="130" height="24" as="geometry" />
        </mxCell>
        <mxCell id="yzf6HxPcANhCnFxS5VST-67" value="userID" style="text;strokeColor=none;fillColor=none;align=left;verticalAlign=top;spacingLeft=4;spacingRight=4;overflow=hidden;rotatable=0;points=[[0,0.5],[1,0.5]];portConstraint=eastwest;whiteSpace=wrap;html=1;" parent="yzf6HxPcANhCnFxS5VST-39" vertex="1">
          <mxGeometry y="50" width="130" height="24" as="geometry" />
        </mxCell>
        <mxCell id="yzf6HxPcANhCnFxS5VST-49" value="netSalary" style="text;strokeColor=none;fillColor=none;align=left;verticalAlign=top;spacingLeft=4;spacingRight=4;overflow=hidden;rotatable=0;points=[[0,0.5],[1,0.5]];portConstraint=eastwest;whiteSpace=wrap;html=1;" parent="yzf6HxPcANhCnFxS5VST-39" vertex="1">
          <mxGeometry y="74" width="130" height="22" as="geometry" />
        </mxCell>
        <mxCell id="yzf6HxPcANhCnFxS5VST-68" value="grossSalary" style="text;strokeColor=none;fillColor=none;align=left;verticalAlign=top;spacingLeft=4;spacingRight=4;overflow=hidden;rotatable=0;points=[[0,0.5],[1,0.5]];portConstraint=eastwest;whiteSpace=wrap;html=1;" parent="yzf6HxPcANhCnFxS5VST-39" vertex="1">
          <mxGeometry y="96" width="130" height="22" as="geometry" />
        </mxCell>
        <mxCell id="yzf6HxPcANhCnFxS5VST-69" value="totalPayment" style="text;strokeColor=none;fillColor=none;align=left;verticalAlign=top;spacingLeft=4;spacingRight=4;overflow=hidden;rotatable=0;points=[[0,0.5],[1,0.5]];portConstraint=eastwest;whiteSpace=wrap;html=1;" parent="yzf6HxPcANhCnFxS5VST-39" vertex="1">
          <mxGeometry y="118" width="130" height="22" as="geometry" />
        </mxCell>
        <mxCell id="yzf6HxPcANhCnFxS5VST-136" value="" style="edgeStyle=orthogonalEdgeStyle;rounded=0;orthogonalLoop=1;jettySize=auto;html=1;" parent="1" source="yzf6HxPcANhCnFxS5VST-51" target="yzf6HxPcANhCnFxS5VST-127" edge="1">
          <mxGeometry relative="1" as="geometry" />
        </mxCell>
        <mxCell id="yzf6HxPcANhCnFxS5VST-51" value="professionalFees" style="swimlane;fontStyle=0;childLayout=stackLayout;horizontal=1;startSize=26;fillColor=#fba;horizontalStack=0;resizeParent=1;resizeParentMax=0;resizeLast=0;collapsible=1;marginBottom=0;whiteSpace=wrap;html=1;" parent="1" vertex="1">
          <mxGeometry x="-170" y="240" width="130" height="242" as="geometry">
            <mxRectangle x="40" y="30" width="70" height="30" as="alternateBounds" />
          </mxGeometry>
        </mxCell>
        <mxCell id="yzf6HxPcANhCnFxS5VST-52" value="feeID" style="text;strokeColor=none;fillColor=none;align=left;verticalAlign=top;spacingLeft=4;spacingRight=4;overflow=hidden;rotatable=0;points=[[0,0.5],[1,0.5]];portConstraint=eastwest;whiteSpace=wrap;html=1;" parent="yzf6HxPcANhCnFxS5VST-51" vertex="1">
          <mxGeometry y="26" width="130" height="24" as="geometry" />
        </mxCell>
        <mxCell id="yzf6HxPcANhCnFxS5VST-53" value="userID" style="text;strokeColor=none;fillColor=none;align=left;verticalAlign=top;spacingLeft=4;spacingRight=4;overflow=hidden;rotatable=0;points=[[0,0.5],[1,0.5]];portConstraint=eastwest;whiteSpace=wrap;html=1;" parent="yzf6HxPcANhCnFxS5VST-51" vertex="1">
          <mxGeometry y="50" width="130" height="26" as="geometry" />
        </mxCell>
        <mxCell id="yzf6HxPcANhCnFxS5VST-126" value="category" style="text;strokeColor=none;fillColor=none;align=left;verticalAlign=top;spacingLeft=4;spacingRight=4;overflow=hidden;rotatable=0;points=[[0,0.5],[1,0.5]];portConstraint=eastwest;whiteSpace=wrap;html=1;" parent="yzf6HxPcANhCnFxS5VST-51" vertex="1">
          <mxGeometry y="76" width="130" height="26" as="geometry" />
        </mxCell>
        <mxCell id="yzf6HxPcANhCnFxS5VST-54" value="description" style="text;strokeColor=none;fillColor=none;align=left;verticalAlign=top;spacingLeft=4;spacingRight=4;overflow=hidden;rotatable=0;points=[[0,0.5],[1,0.5]];portConstraint=eastwest;whiteSpace=wrap;html=1;" parent="yzf6HxPcANhCnFxS5VST-51" vertex="1">
          <mxGeometry y="102" width="130" height="26" as="geometry" />
        </mxCell>
        <mxCell id="yzf6HxPcANhCnFxS5VST-55" value="proof" style="text;strokeColor=none;fillColor=none;align=left;verticalAlign=top;spacingLeft=4;spacingRight=4;overflow=hidden;rotatable=0;points=[[0,0.5],[1,0.5]];portConstraint=eastwest;whiteSpace=wrap;html=1;" parent="yzf6HxPcANhCnFxS5VST-51" vertex="1">
          <mxGeometry y="128" width="130" height="26" as="geometry" />
        </mxCell>
        <mxCell id="yzf6HxPcANhCnFxS5VST-56" value="creationDate" style="text;strokeColor=none;fillColor=none;align=left;verticalAlign=top;spacingLeft=4;spacingRight=4;overflow=hidden;rotatable=0;points=[[0,0.5],[1,0.5]];portConstraint=eastwest;whiteSpace=wrap;html=1;" parent="yzf6HxPcANhCnFxS5VST-51" vertex="1">
          <mxGeometry y="154" width="130" height="22" as="geometry" />
        </mxCell>
        <mxCell id="yzf6HxPcANhCnFxS5VST-57" value="amount" style="text;strokeColor=none;fillColor=none;align=left;verticalAlign=top;spacingLeft=4;spacingRight=4;overflow=hidden;rotatable=0;points=[[0,0.5],[1,0.5]];portConstraint=eastwest;whiteSpace=wrap;html=1;" parent="yzf6HxPcANhCnFxS5VST-51" vertex="1">
          <mxGeometry y="176" width="130" height="22" as="geometry" />
        </mxCell>
        <mxCell id="yzf6HxPcANhCnFxS5VST-137" value="monthPayment" style="text;strokeColor=none;fillColor=none;align=left;verticalAlign=top;spacingLeft=4;spacingRight=4;overflow=hidden;rotatable=0;points=[[0,0.5],[1,0.5]];portConstraint=eastwest;whiteSpace=wrap;html=1;" parent="yzf6HxPcANhCnFxS5VST-51" vertex="1">
          <mxGeometry y="198" width="130" height="22" as="geometry" />
        </mxCell>
        <mxCell id="yzf6HxPcANhCnFxS5VST-77" value="feeStatus" style="text;strokeColor=none;fillColor=none;align=left;verticalAlign=top;spacingLeft=4;spacingRight=4;overflow=hidden;rotatable=0;points=[[0,0.5],[1,0.5]];portConstraint=eastwest;whiteSpace=wrap;html=1;" parent="yzf6HxPcANhCnFxS5VST-51" vertex="1">
          <mxGeometry y="220" width="130" height="22" as="geometry" />
        </mxCell>
        <mxCell id="yzf6HxPcANhCnFxS5VST-81" value="customer" style="swimlane;fontStyle=0;childLayout=stackLayout;horizontal=1;startSize=26;fillColor=#fba;horizontalStack=0;resizeParent=1;resizeParentMax=0;resizeLast=0;collapsible=1;marginBottom=0;whiteSpace=wrap;html=1;" parent="1" vertex="1">
          <mxGeometry x="-170" y="30" width="130" height="194" as="geometry">
            <mxRectangle x="40" y="30" width="70" height="30" as="alternateBounds" />
          </mxGeometry>
        </mxCell>
        <mxCell id="yzf6HxPcANhCnFxS5VST-82" value="customerID: int" style="text;strokeColor=none;fillColor=none;align=left;verticalAlign=top;spacingLeft=4;spacingRight=4;overflow=hidden;rotatable=0;points=[[0,0.5],[1,0.5]];portConstraint=eastwest;whiteSpace=wrap;html=1;" parent="yzf6HxPcANhCnFxS5VST-81" vertex="1">
          <mxGeometry y="26" width="130" height="24" as="geometry" />
        </mxCell>
        <mxCell id="yzf6HxPcANhCnFxS5VST-83" value="userId: int" style="text;strokeColor=none;fillColor=none;align=left;verticalAlign=top;spacingLeft=4;spacingRight=4;overflow=hidden;rotatable=0;points=[[0,0.5],[1,0.5]];portConstraint=eastwest;whiteSpace=wrap;html=1;" parent="yzf6HxPcANhCnFxS5VST-81" vertex="1">
          <mxGeometry y="50" width="130" height="26" as="geometry" />
        </mxCell>
        <mxCell id="yzf6HxPcANhCnFxS5VST-84" value="customerName" style="text;strokeColor=none;fillColor=none;align=left;verticalAlign=top;spacingLeft=4;spacingRight=4;overflow=hidden;rotatable=0;points=[[0,0.5],[1,0.5]];portConstraint=eastwest;whiteSpace=wrap;html=1;" parent="yzf6HxPcANhCnFxS5VST-81" vertex="1">
          <mxGeometry y="76" width="130" height="26" as="geometry" />
        </mxCell>
        <mxCell id="yzf6HxPcANhCnFxS5VST-85" value="customerAddress" style="text;strokeColor=none;fillColor=none;align=left;verticalAlign=top;spacingLeft=4;spacingRight=4;overflow=hidden;rotatable=0;points=[[0,0.5],[1,0.5]];portConstraint=eastwest;whiteSpace=wrap;html=1;" parent="yzf6HxPcANhCnFxS5VST-81" vertex="1">
          <mxGeometry y="102" width="130" height="26" as="geometry" />
        </mxCell>
        <mxCell id="yzf6HxPcANhCnFxS5VST-86" value="siren" style="text;strokeColor=none;fillColor=none;align=left;verticalAlign=top;spacingLeft=4;spacingRight=4;overflow=hidden;rotatable=0;points=[[0,0.5],[1,0.5]];portConstraint=eastwest;whiteSpace=wrap;html=1;" parent="yzf6HxPcANhCnFxS5VST-81" vertex="1">
          <mxGeometry y="128" width="130" height="22" as="geometry" />
        </mxCell>
        <mxCell id="yzf6HxPcANhCnFxS5VST-87" value="siret" style="text;strokeColor=none;fillColor=none;align=left;verticalAlign=top;spacingLeft=4;spacingRight=4;overflow=hidden;rotatable=0;points=[[0,0.5],[1,0.5]];portConstraint=eastwest;whiteSpace=wrap;html=1;" parent="yzf6HxPcANhCnFxS5VST-81" vertex="1">
          <mxGeometry y="150" width="130" height="22" as="geometry" />
        </mxCell>
        <mxCell id="yzf6HxPcANhCnFxS5VST-88" value="enabled" style="text;strokeColor=none;fillColor=none;align=left;verticalAlign=top;spacingLeft=4;spacingRight=4;overflow=hidden;rotatable=0;points=[[0,0.5],[1,0.5]];portConstraint=eastwest;whiteSpace=wrap;html=1;" parent="yzf6HxPcANhCnFxS5VST-81" vertex="1">
          <mxGeometry y="172" width="130" height="22" as="geometry" />
        </mxCell>
        <mxCell id="yzf6HxPcANhCnFxS5VST-104" value="transaction" style="swimlane;fontStyle=0;childLayout=stackLayout;horizontal=1;startSize=26;fillColor=#fba;horizontalStack=0;resizeParent=1;resizeParentMax=0;resizeLast=0;collapsible=1;marginBottom=0;whiteSpace=wrap;html=1;" parent="1" vertex="1">
          <mxGeometry x="50" y="560" width="130" height="170" as="geometry">
            <mxRectangle x="40" y="30" width="70" height="30" as="alternateBounds" />
          </mxGeometry>
        </mxCell>
        <mxCell id="yzf6HxPcANhCnFxS5VST-105" value="tranactionID: int SERIAL" style="text;strokeColor=none;fillColor=none;align=left;verticalAlign=top;spacingLeft=4;spacingRight=4;overflow=hidden;rotatable=0;points=[[0,0.5],[1,0.5]];portConstraint=eastwest;whiteSpace=wrap;html=1;" parent="yzf6HxPcANhCnFxS5VST-104" vertex="1">
          <mxGeometry y="26" width="130" height="24" as="geometry" />
        </mxCell>
        <mxCell id="yzf6HxPcANhCnFxS5VST-122" value="userID: int" style="text;strokeColor=none;fillColor=none;align=left;verticalAlign=top;spacingLeft=4;spacingRight=4;overflow=hidden;rotatable=0;points=[[0,0.5],[1,0.5]];portConstraint=eastwest;whiteSpace=wrap;html=1;" parent="yzf6HxPcANhCnFxS5VST-104" vertex="1">
          <mxGeometry y="50" width="130" height="24" as="geometry" />
        </mxCell>
        <mxCell id="yzf6HxPcANhCnFxS5VST-120" value="transactionNature: varchar(500)" style="text;strokeColor=none;fillColor=none;align=left;verticalAlign=top;spacingLeft=4;spacingRight=4;overflow=hidden;rotatable=0;points=[[0,0.5],[1,0.5]];portConstraint=eastwest;whiteSpace=wrap;html=1;" parent="yzf6HxPcANhCnFxS5VST-104" vertex="1">
          <mxGeometry y="74" width="130" height="22" as="geometry" />
        </mxCell>
        <mxCell id="yzf6HxPcANhCnFxS5VST-123" value="transactionDate: date" style="text;strokeColor=none;fillColor=none;align=left;verticalAlign=top;spacingLeft=4;spacingRight=4;overflow=hidden;rotatable=0;points=[[0,0.5],[1,0.5]];portConstraint=eastwest;whiteSpace=wrap;html=1;" parent="yzf6HxPcANhCnFxS5VST-104" vertex="1">
          <mxGeometry y="96" width="130" height="22" as="geometry" />
        </mxCell>
        <mxCell id="yzf6HxPcANhCnFxS5VST-124" value="transactionDescription: varchar(500)" style="text;strokeColor=none;fillColor=none;align=left;verticalAlign=top;spacingLeft=4;spacingRight=4;overflow=hidden;rotatable=0;points=[[0,0.5],[1,0.5]];portConstraint=eastwest;whiteSpace=wrap;html=1;" parent="yzf6HxPcANhCnFxS5VST-104" vertex="1">
          <mxGeometry y="118" width="130" height="52" as="geometry" />
        </mxCell>
        <mxCell id="yzf6HxPcANhCnFxS5VST-127" value="professionalFeesCateg" style="swimlane;fontStyle=0;childLayout=stackLayout;horizontal=1;startSize=26;fillColor=#fba;horizontalStack=0;resizeParent=1;resizeParentMax=0;resizeLast=0;collapsible=1;marginBottom=0;whiteSpace=wrap;html=1;" parent="1" vertex="1">
          <mxGeometry x="-170" y="540" width="140" height="76" as="geometry">
            <mxRectangle x="40" y="30" width="70" height="30" as="alternateBounds" />
          </mxGeometry>
        </mxCell>
        <mxCell id="yzf6HxPcANhCnFxS5VST-128" value="proFeesCategID" style="text;strokeColor=none;fillColor=none;align=left;verticalAlign=top;spacingLeft=4;spacingRight=4;overflow=hidden;rotatable=0;points=[[0,0.5],[1,0.5]];portConstraint=eastwest;whiteSpace=wrap;html=1;" parent="yzf6HxPcANhCnFxS5VST-127" vertex="1">
          <mxGeometry y="26" width="140" height="24" as="geometry" />
        </mxCell>
        <mxCell id="yzf6HxPcANhCnFxS5VST-129" value="category" style="text;strokeColor=none;fillColor=none;align=left;verticalAlign=top;spacingLeft=4;spacingRight=4;overflow=hidden;rotatable=0;points=[[0,0.5],[1,0.5]];portConstraint=eastwest;whiteSpace=wrap;html=1;" parent="yzf6HxPcANhCnFxS5VST-127" vertex="1">
          <mxGeometry y="50" width="140" height="26" as="geometry" />
        </mxCell>
        <mxCell id="Th4rdJgEuEFJNUefSonM-2" value="mission" style="swimlane;fontStyle=0;childLayout=stackLayout;horizontal=1;startSize=26;fillColor=#fba;horizontalStack=0;resizeParent=1;resizeParentMax=0;resizeLast=0;collapsible=1;marginBottom=0;whiteSpace=wrap;html=1;" vertex="1" parent="1">
          <mxGeometry x="240" y="520" width="130" height="150" as="geometry">
            <mxRectangle x="40" y="30" width="70" height="30" as="alternateBounds" />
          </mxGeometry>
        </mxCell>
        <mxCell id="Th4rdJgEuEFJNUefSonM-3" value="missionID: integer SERIAL" style="text;strokeColor=none;fillColor=none;align=left;verticalAlign=top;spacingLeft=4;spacingRight=4;overflow=hidden;rotatable=0;points=[[0,0.5],[1,0.5]];portConstraint=eastwest;whiteSpace=wrap;html=1;" vertex="1" parent="Th4rdJgEuEFJNUefSonM-2">
          <mxGeometry y="26" width="130" height="34" as="geometry" />
        </mxCell>
        <mxCell id="Th4rdJgEuEFJNUefSonM-4" value="userID: int" style="text;strokeColor=none;fillColor=none;align=left;verticalAlign=top;spacingLeft=4;spacingRight=4;overflow=hidden;rotatable=0;points=[[0,0.5],[1,0.5]];portConstraint=eastwest;whiteSpace=wrap;html=1;" vertex="1" parent="Th4rdJgEuEFJNUefSonM-2">
          <mxGeometry y="60" width="130" height="24" as="geometry" />
        </mxCell>
        <mxCell id="Th4rdJgEuEFJNUefSonM-5" value="customerID: integer" style="text;strokeColor=none;fillColor=none;align=left;verticalAlign=top;spacingLeft=4;spacingRight=4;overflow=hidden;rotatable=0;points=[[0,0.5],[1,0.5]];portConstraint=eastwest;whiteSpace=wrap;html=1;" vertex="1" parent="Th4rdJgEuEFJNUefSonM-2">
          <mxGeometry y="84" width="130" height="22" as="geometry" />
        </mxCell>
        <mxCell id="Th4rdJgEuEFJNUefSonM-6" value="missionName: varchar(500)" style="text;strokeColor=none;fillColor=none;align=left;verticalAlign=top;spacingLeft=4;spacingRight=4;overflow=hidden;rotatable=0;points=[[0,0.5],[1,0.5]];portConstraint=eastwest;whiteSpace=wrap;html=1;" vertex="1" parent="Th4rdJgEuEFJNUefSonM-2">
          <mxGeometry y="106" width="130" height="44" as="geometry" />
        </mxCell>
        <mxCell id="Th4rdJgEuEFJNUefSonM-8" style="edgeStyle=orthogonalEdgeStyle;rounded=0;orthogonalLoop=1;jettySize=auto;html=1;entryX=0.5;entryY=0;entryDx=0;entryDy=0;" edge="1" parent="1" source="yzf6HxPcANhCnFxS5VST-78" target="Th4rdJgEuEFJNUefSonM-2">
          <mxGeometry relative="1" as="geometry" />
        </mxCell>
      </root>
    </mxGraphModel>
  </diagram>
</mxfile>
